<svg version="1.2" xmlns="http://www.w3.org/2000/svg" viewBox="0 0 108 92" width="108" height="92">
	<title>imgix-svg</title>
	<defs>
		<linearGradient id="g1" x1="54" y1="92" x2="54" y2="0" gradientUnits="userSpaceOnUse">
			<stop offset="0" stop-color="#d84a2e"/>
			<stop offset="1" stop-color="#ff6633"/>
		</linearGradient>
	</defs>
	<style>
		.s0 { fill: #ff6633 } 
		.s1 { fill: url(#g1) } 
		.s2 { fill: #f5f5f5 } 
	</style>
	<rect id="Layer" class="s0" x="0" width="108" height="92" rx="6.5"></rect>
	<rect id="Layer" class="s1" x="0" width="108" height="92" rx="6.5"></rect>
	<path id="Layer" class="s2" d="m18.8 78.8c-3.6 0-6.4-2.9-6.4-6.5v-51.9c0-3.6 2.9-6.5 6.4-6.5 3.5 0 6.4 2.9 6.4 6.5v51.9c0.1 3.6-2.8 6.5-6.4 6.5z"/>
	<path id="Layer" class="s2" d="m94.8 67.3c2.3 2.7 2.1 6.8-0.6 9.2-1.2 1.1-2.7 1.6-4.2 1.6-1.8 0-3.6-0.7-4.9-2.2l-17.7-20.4-17.7 20.4c-1.3 1.5-3.1 2.2-4.9 2.2-1.5 0-3-0.5-4.2-1.6-2.7-2.4-2.9-6.5-0.6-9.2l18.8-21.6-18.8-21.7c-2.3-2.7-2.1-6.8 0.6-9.2 2.7-2.4 6.8-2.1 9.1 0.6l17.7 20.4 17.7-20.4c2.4-2.7 6.4-3 9.1-0.6 2.7 2.4 2.9 6.5 0.6 9.2l-18.8 21.6z"/>
</svg>